<svg width="128" height="16" viewBox="0 0 128 16" fill="none" xmlns="http://www.w3.org/2000/svg">
<path d="M12.86 15L6.76 8.32L12.46 1.6H8.5L3.94 6.92H3.46V1.6H0.16V15H3.46V9.96H4.16L8.54 15H12.86ZM15.7286 0.179999C14.6486 0.179999 13.8886 1.02 13.8886 2C13.8886 3.02 14.6486 3.78 15.7286 3.78C16.8086 3.78 17.5886 3.02 17.5886 2C17.5886 1.02 16.8086 0.179999 15.7286 0.179999ZM17.3286 15V4.96H14.1286V15H17.3286ZM26.4684 4.82C24.8284 4.82 23.7284 5.68 23.0084 6.88V4.96H19.8084V15H23.0084V11.86C23.0084 9.26 24.2284 8.1 26.4684 8.1H27.0484L27.1884 4.9C26.9484 4.84 26.7484 4.82 26.4684 4.82ZM30.2989 0.179999C29.2189 0.179999 28.4589 1.02 28.4589 2C28.4589 3.02 29.2189 3.78 30.2989 3.78C31.3789 3.78 32.1589 3.02 32.1589 2C32.1589 1.02 31.3789 0.179999 30.2989 0.179999ZM31.8989 15V4.96H28.6989V15H31.8989ZM37.5788 15V0.599999H34.3788V15H37.5788ZM43.1061 15V0.599999H39.9061V15H43.1061ZM62.3619 15L58.1619 10.24C60.3219 9.76 61.6819 8.18 61.6819 5.98C61.6819 3.36 59.7619 1.6 56.8619 1.6H50.0819V15H53.3819V10.4H54.3419L58.3819 15H62.3619ZM53.3819 7.64V4.42H56.5019C57.6819 4.42 58.4419 5.06 58.4419 6.02C58.4419 7 57.6819 7.64 56.5019 7.64H53.3819ZM68.0873 4.7C65.0473 4.7 62.5273 6.82 62.5273 9.98C62.5273 13.16 65.0473 15.28 68.0873 15.28C71.0673 15.28 73.5873 13.16 73.5873 9.98C73.5873 6.82 71.0673 4.7 68.0873 4.7ZM68.0873 12.58C66.7873 12.58 65.6073 11.56 65.6073 9.98C65.6073 8.42 66.7873 7.38 68.0873 7.38C69.3273 7.38 70.5073 8.42 70.5073 9.98C70.5073 11.56 69.3273 12.58 68.0873 12.58ZM78.4381 15V0.599999H75.2381V15H78.4381ZM90.6055 9.98C90.5455 6.7 88.2655 4.66 85.4255 4.66C82.5055 4.66 80.1055 6.82 80.1055 9.98C80.1055 13.16 82.5055 15.3 85.4055 15.3C87.7055 15.3 89.5255 14.28 90.3855 12.16L87.5455 11.58C87.0055 12.56 86.1455 12.74 85.4055 12.74C84.3255 12.74 83.5055 12 83.2455 10.8H90.6055V9.98ZM85.4255 7.26C86.3455 7.26 87.1455 7.76 87.4455 8.84H83.3055C83.6055 7.82 84.5255 7.26 85.4255 7.26ZM94.0294 0.179999C92.9494 0.179999 92.1894 1.02 92.1894 2C92.1894 3.02 92.9494 3.78 94.0294 3.78C95.1094 3.78 95.8894 3.02 95.8894 2C95.8894 1.02 95.1094 0.179999 94.0294 0.179999ZM95.6294 15V4.96H92.4294V15H95.6294ZM104.389 4.66C103.129 4.66 102.069 5.12 101.309 5.92V4.96H98.1092V15H101.309V10.34C101.309 8.4 102.129 7.54 103.389 7.54C104.409 7.54 105.109 8.34 105.109 9.52V15H108.289V8.84C108.289 6.32 106.729 4.66 104.389 4.66ZM112.233 0.179999C111.153 0.179999 110.393 1.02 110.393 2C110.393 3.02 111.153 3.78 112.233 3.78C113.313 3.78 114.093 3.02 114.093 2C114.093 1.02 113.313 0.179999 112.233 0.179999ZM113.833 15V4.96H110.632V15H113.833ZM127.452 15L122.592 9.74L126.992 4.96H123.132L119.952 8.38H119.512V0.599999H116.312V15H119.512V11.38H120.092L123.352 15H127.452Z" fill="#282829"/>
</svg>
